<svg width="35" height="37" viewBox="0 0 35 37" fill="none" xmlns="http://www.w3.org/2000/svg">
<path opacity="0.4" d="M9.07227 8.54912C9.07227 4.15775 12.7627 0.583374 17.2986 0.583374H26.3148C30.8395 0.583374 34.5208 4.14879 34.5208 8.53121V28.4474C34.5208 32.8405 30.8321 36.4167 26.2963 36.4167H17.2801C12.7553 36.4167 9.07227 32.8495 9.07227 28.4653V26.7811V8.54912Z" fill="#878787"/>
<path d="M24.733 17.5214L19.4155 12.3095C18.8659 11.772 17.9815 11.772 17.4337 12.3131C16.8878 12.8541 16.8896 13.7267 17.4374 14.2642L20.3491 17.1183H1.87977C1.10635 17.1183 0.478516 17.7364 0.478516 18.4997C0.478516 19.2611 1.10635 19.8775 1.87977 19.8775H20.3491L17.4374 22.7334C16.8896 23.2709 16.8878 24.1434 17.4337 24.6845C17.7085 24.9551 18.067 25.0912 18.4274 25.0912C18.784 25.0912 19.1425 24.9551 19.4155 24.6881L24.733 19.4761C24.9969 19.2164 25.1461 18.8652 25.1461 18.4997C25.1461 18.1324 24.9969 17.7812 24.733 17.5214" fill="#878787"/>
</svg>
