<svg width="37" height="32" viewBox="0 0 37 32" fill="none" xmlns="http://www.w3.org/2000/svg">
<path opacity="0.4" d="M36.4173 22.8954C36.4173 27.7779 32.404 31.7329 27.4052 31.7504H27.3873H9.6319C4.65107 31.7504 0.583984 27.8129 0.583984 22.9304V22.9129C0.583984 22.9129 0.594734 15.1674 0.609068 11.2719C0.610859 10.5404 1.47086 10.1309 2.05673 10.5859C6.31373 13.8846 13.9265 19.8994 14.0215 19.9781C15.2936 20.9739 16.9061 21.5356 18.5544 21.5356C20.2027 21.5356 21.8152 20.9739 23.0873 19.9589C23.1823 19.8976 30.6249 14.0631 34.9464 10.7101C35.534 10.2534 36.3976 10.6629 36.3994 11.3926C36.4173 15.2584 36.4173 22.8954 36.4173 22.8954" fill="#878787"/>
<path d="M35.4795 4.92883C33.928 2.07283 30.875 0.249329 27.5138 0.249329H9.63295C6.27179 0.249329 3.21879 2.07283 1.6672 4.92883C1.31962 5.56758 1.48445 6.36383 2.06316 6.81533L15.3663 17.2086C16.298 17.9436 17.4267 18.3093 18.5555 18.3093C18.5626 18.3093 18.568 18.3093 18.5734 18.3093C18.5787 18.3093 18.5859 18.3093 18.5913 18.3093C19.72 18.3093 20.8488 17.9436 21.7805 17.2086L35.0836 6.81533C35.6623 6.36383 35.8271 5.56758 35.4795 4.92883" fill="#878787"/>
</svg>
