<svg width="35" height="35" viewBox="0 0 35 35" fill="none" xmlns="http://www.w3.org/2000/svg">
<path d="M17.0419 21.9186C14.1672 21.9186 11.8418 19.7832 11.8418 17.1011C11.8418 14.419 14.1672 12.2665 17.0419 12.2665C19.9165 12.2665 22.187 14.419 22.187 17.1011C22.187 19.7832 19.9165 21.9186 17.0419 21.9186" fill="#878787"/>
<path opacity="0.4" d="M33.5581 21.1328C33.2103 20.6203 32.7159 20.1078 32.075 19.7832C31.5624 19.5441 31.2328 19.1511 30.9398 18.6899C30.006 17.2207 30.5553 15.2903 32.1117 14.4191C33.9427 13.4453 34.5286 11.2757 33.4666 9.58448L32.2398 7.56865C31.1961 5.8774 28.9074 5.27948 27.0947 6.27032C25.4834 7.09032 23.4144 6.54365 22.4806 5.09157C22.1876 4.61323 22.0228 4.10073 22.0594 3.58823C22.1144 2.92198 21.8946 2.2899 21.5651 1.7774C20.8876 0.718232 19.6608 0.000732422 18.3059 0.000732422H15.7241C14.3875 0.0348991 13.1607 0.718232 12.4833 1.7774C12.1354 2.2899 11.934 2.92198 11.9706 3.58823C12.0072 4.10073 11.8424 4.61323 11.5494 5.09157C10.6156 6.54365 8.5466 7.09032 6.95362 6.27032C5.12261 5.27948 2.85216 5.8774 1.79018 7.56865L0.563406 9.58448C-0.480268 11.2757 0.105654 13.4453 1.91835 14.4191C3.47471 15.2903 4.02401 17.2207 3.10851 18.6899C2.79723 19.1511 2.46765 19.5441 1.95497 19.7832C1.33243 20.1078 0.783126 20.6203 0.490165 21.1328C-0.187307 22.192 -0.150687 23.5245 0.526785 24.6349L1.79018 26.6849C2.46765 27.7782 3.73105 28.4616 5.04937 28.4616C5.67191 28.4616 6.40432 28.2907 6.99024 27.9491C7.44799 27.6587 7.99729 27.5561 8.60153 27.5561C10.4142 27.5561 11.934 28.9741 11.9706 30.6653C11.9706 32.6299 13.6551 34.1674 15.7791 34.1674H18.2692C20.3749 34.1674 22.0594 32.6299 22.0594 30.6653C22.1144 28.9741 23.6341 27.5561 25.4468 27.5561C26.0327 27.5561 26.582 27.6587 27.0581 27.9491C27.644 28.2907 28.3581 28.4616 28.9989 28.4616C30.299 28.4616 31.5624 27.7782 32.2398 26.6849L33.5215 24.6349C34.1807 23.4903 34.2356 22.192 33.5581 21.1328" fill="#878787"/>
</svg>
