<svg width="128" height="128" viewBox="0 0 128 128" fill="none" xmlns="http://www.w3.org/2000/svg">
<path d="M83.9572 107.875C73.0516 118.99 55.2211 119.138 44.1315 108.207L32.8261 97.063C29.3595 93.6458 29.3128 88.0589 32.722 84.5843L44.7683 72.3066C46.7023 70.3355 49.8643 70.3091 51.8309 72.2476L83.9238 103.883C85.0328 104.976 85.0477 106.763 83.9572 107.875V107.875Z" fill="#636363"/>
<path d="M83.3968 55.6937C81.4628 57.6648 78.3008 57.6912 76.3342 55.7527L42.2333 22.1383V22.1383C54.2296 9.9116 73.8435 9.74787 86.0423 21.7726L101.616 37.1243L83.3968 55.6937Z" fill="#636363"/>
<path d="M68.7803 79.8574L106.044 42.3315V42.3315C118.17 54.4289 118.216 74.0887 106.147 86.2429L90.7364 101.762L68.7803 79.8574Z" fill="#4C6198"/>
<path d="M21.9561 86.0391C9.83009 73.9417 9.78401 54.2819 21.8532 42.1277L37.2636 26.6089L59.2197 48.5132L21.9561 86.0391V86.0391Z" fill="#4C6198"/>
</svg>
