<svg width="37" height="37" viewBox="0 0 37 37" fill="none" xmlns="http://www.w3.org/2000/svg">
<path opacity="0.4" d="M26.8777 0.583313H10.1395C4.03991 0.583313 0.583984 4.03924 0.583984 10.1389V26.8611C0.583984 32.9607 4.03991 36.4166 10.1395 36.4166H26.8777C32.9773 36.4166 36.4173 32.9607 36.4173 26.8611V10.1389C36.4173 4.03924 32.9773 0.583313 26.8777 0.583313" fill="#878787"/>
<path d="M10.2038 13.7861C9.39155 13.7861 8.72266 14.455 8.72266 15.2831V27.5938C8.72266 28.4061 9.39155 29.075 10.2038 29.075C11.0319 29.075 11.7008 28.4061 11.7008 27.5938V15.2831C11.7008 14.455 11.0319 13.7861 10.2038 13.7861" fill="#878787"/>
<path d="M18.5631 7.90939C17.7509 7.90939 17.082 8.57828 17.082 9.40643V27.5938C17.082 28.4061 17.7509 29.0749 18.5631 29.0749C19.3913 29.0749 20.0602 28.4061 20.0602 27.5938V9.40643C20.0602 8.57828 19.3913 7.90939 18.5631 7.90939" fill="#878787"/>
<path d="M26.8134 20.2838C25.9853 20.2838 25.3164 20.9527 25.3164 21.7809V27.5938C25.3164 28.4061 25.9853 29.075 26.7975 29.075C27.6257 29.075 28.2946 28.4061 28.2946 27.5938V21.7809C28.2946 20.9527 27.6257 20.2838 26.8134 20.2838" fill="#878787"/>
</svg>
