<svg width="20" height="20" viewBox="0 0 20 20" fill="none" xmlns="http://www.w3.org/2000/svg">
<path fill-rule="evenodd" clip-rule="evenodd" d="M7.83946 0.833344C8.71121 0.83426 9.54171 1.25043 10.0624 1.94618L10.8975 3.05718C11.1624 3.40918 11.5831 3.61909 12.0231 3.62001H14.6164C18.1565 3.62001 19.8056 5.43409 19.8056 9.32901L19.78 13.8821C19.779 17.5194 17.5185 19.7799 13.8794 19.7799H6.74587C3.09937 19.7799 0.833374 17.5185 0.833374 13.8793V6.73026C0.833374 2.81701 2.57412 0.833344 6.00612 0.833344H7.83946ZM7.83854 2.20834H6.00612C3.34412 2.20834 2.20837 3.56134 2.20837 6.73026V13.8793C2.20837 16.798 3.81987 18.4049 6.74587 18.4049H13.8794C16.798 18.4049 18.405 16.798 18.405 13.8793V13.8766L18.4306 9.32534C18.4306 6.20959 17.3618 4.99501 14.6164 4.99501H12.0222C11.1523 4.99409 10.3218 4.57884 9.79929 3.88401L8.96237 2.77118C8.69929 2.41826 8.27854 2.20926 7.83854 2.20834ZM14.3232 12.0284C14.7027 12.0284 15.0107 12.3364 15.0107 12.7159C15.0107 13.0954 14.7027 13.4034 14.3232 13.4034H6.31614C5.93664 13.4034 5.62864 13.0954 5.62864 12.7159C5.62864 12.3364 5.93664 12.0284 6.31614 12.0284H14.3232Z" fill="white"/>
</svg>
