<svg width="35" height="37" viewBox="0 0 35 37" fill="none" xmlns="http://www.w3.org/2000/svg">
<path d="M12.3819 34.2346V28.7398C12.3818 27.3474 13.5141 26.2162 14.9165 26.2074H20.0661C21.4748 26.2074 22.6168 27.3412 22.6168 28.7398V28.7398V34.2187C22.6168 35.4264 23.5982 36.4079 24.8146 36.4166H28.3279C29.9687 36.4209 31.5438 35.7767 32.7055 34.6263C33.8673 33.4759 34.5202 31.9138 34.5202 30.2847V14.6763C34.5201 13.3604 33.9326 12.1122 32.916 11.2679L20.9805 1.79141C18.8942 0.133855 15.9144 0.1874 13.8898 1.91882L2.21108 11.2679C1.14634 12.0873 0.509963 13.3392 0.478516 14.6763V30.2688C0.478516 33.6642 3.25091 36.4166 6.67083 36.4166H10.1039C10.6895 36.4209 11.2527 36.1929 11.6683 35.7832C12.084 35.3735 12.3177 34.8161 12.3177 34.2346H12.3819Z" fill="#878787"/>
</svg>
