<svg width="31" height="38" viewBox="0 0 31 38" fill="none" xmlns="http://www.w3.org/2000/svg">
<path d="M29.421 18.3498C28.1122 16.7859 27.5175 15.4306 27.5175 13.1281V12.3453C27.5175 9.34484 26.8426 7.41164 25.3753 5.47844C23.1139 2.47617 19.3068 0.666687 15.5799 0.666687H15.4214C11.7728 0.666687 8.08506 2.39308 5.78443 5.27349C4.23703 7.24546 3.48381 9.26175 3.48381 12.3453V13.1281C3.48381 15.4306 2.92824 16.7859 1.58028 18.3498C0.588443 19.502 0.271484 20.9828 0.271484 22.5855C0.271484 24.19 0.786098 25.7096 1.81889 26.9449C3.16685 28.4257 5.07039 29.3711 7.01488 29.5354C9.83011 29.864 12.6453 29.9878 15.5015 29.9878C18.356 29.9878 21.1712 29.781 23.9882 29.5354C25.9309 29.3711 27.8345 28.4257 29.1824 26.9449C30.2134 25.7096 30.7298 24.19 30.7298 22.5855C30.7298 20.9828 30.4129 19.502 29.421 18.3498" fill="#878787"/>
<path opacity="0.4" d="M19.0987 32.252C18.203 32.0563 12.7452 32.0563 11.8496 32.252C11.0839 32.433 10.2559 32.8539 10.2559 33.7772C10.3004 34.6579 10.8043 35.4352 11.5023 35.9282L11.5005 35.9301C12.4033 36.6502 13.4628 37.1081 14.5722 37.2724C15.1634 37.3555 15.7652 37.3518 16.3778 37.2724C17.4854 37.1081 18.5449 36.6502 19.4477 35.9301L19.4459 35.9282C20.1439 35.4352 20.6478 34.6579 20.6924 33.7772C20.6924 32.8539 19.8643 32.433 19.0987 32.252" fill="#878787"/>
</svg>
