<svg width="33" height="32" viewBox="0 0 33 32" fill="none" xmlns="http://www.w3.org/2000/svg">
<path clip-rule="evenodd" d="M24.3107 1.29073C24.3107 5.17747 27.5412 8.32829 31.5263 8.32829C31.9651 8.32618 32.4028 8.28504 32.834 8.20537V22.1576C32.834 28.0273 29.2892 31.5 23.2708 31.5H10.1629C4.12881 31.5 0.583984 28.0273 0.583984 22.1576V9.37317C0.583984 3.50342 4.12881 0 10.1629 0H24.4367C24.352 0.425258 24.3098 0.857525 24.3107 1.29073ZM20.561 19.069L25.6813 12.6154V12.5846C26.1197 12.0093 26.0078 11.1981 25.4292 10.7561C25.1492 10.5449 24.7934 10.4535 24.443 10.5028C24.0927 10.552 23.7777 10.7377 23.5702 11.0173L19.2534 16.4415L14.3379 12.6615C14.0573 12.4479 13.7002 12.3536 13.3475 12.3999C12.9947 12.4461 12.6759 12.6291 12.4631 12.9073L7.16948 19.5761C6.98341 19.8026 6.88323 20.0849 6.88589 20.3751C6.85517 20.9617 7.23442 21.4946 7.80866 21.6717C8.3829 21.8487 9.00729 21.6253 9.32788 21.128L13.755 15.5349L18.6705 19.2995C18.95 19.5197 19.3094 19.6195 19.6659 19.576C20.0225 19.5325 20.3456 19.3495 20.561 19.069Z" fill="#878787"/>
</svg>
