<svg xmlns="http://www.w3.org/2000/svg" width="70" height="70" fill="none" viewBox="0 0 70 70"><path fill="#636363" d="M45.914 58.8571C39.95 64.9215 30.1991 65.0029 24.1347 59.0389L17.9516 52.9582C16.0558 51.0938 16.0303 48.0455 17.8948 46.1496L22.8916 41.0687C24.8279 39.0998 27.9936 39.0734 29.9625 41.0096L45.8958 56.6792C46.5022 57.2756 46.5104 58.2506 45.914 58.8571Z"/><path fill="#636363" d="M47.1988 28.7693C45.2625 30.7382 42.0968 30.7646 40.1279 28.8283L23.0965 12.0789C29.657 5.40798 40.3832 5.31844 47.0542 11.8789L55.5717 20.2554L47.1988 28.7693Z"/><path fill="#4C6198" d="M37.6143 43.5708L57.9928 23.0964C64.6243 29.6969 64.6494 40.4234 58.049 47.0549L49.6215 55.5219L37.6143 43.5708Z"/><path fill="#4C6198" d="M12.0073 46.9433C5.37585 40.3429 5.3507 29.6163 11.9511 22.9849L20.3786 14.5178L32.3859 26.469L12.0073 46.9433Z"/></svg>